<svg width="1357.917" height="471.193" viewBox="0 0 1357.917 471.193" xmlns="http://www.w3.org/2000/svg"><g id="svgGroup" stroke-linecap="round" fill-rule="evenodd" font-size="9pt" stroke="#000" stroke-width="0.25mm" fill="#000" style="stroke:#000;stroke-width:0.25mm;fill:#000"><path d="M 282.72 182.13 L 282.72 318.361 A 110.684 110.684 0 0 1 247.769 347.946 A 143.654 143.654 0 0 1 229.253 356.447 A 196.3 196.3 0 0 1 185.394 367.251 A 257.253 257.253 0 0 1 151.616 369.386 A 167.838 167.838 0 0 1 107.04 363.667 A 141.597 141.597 0 0 1 72.515 349.122 A 134.716 134.716 0 0 1 20.002 292.314 A 161.321 161.321 0 0 1 19.414 291.139 A 182.019 182.019 0 0 1 3.562 241.914 A 241.956 241.956 0 0 1 0.005 203.126 L 0.005 175.294 A 272.222 272.222 0 0 1 4.158 126.221 Q 9.34 97.974 20.989 75.642 A 140.301 140.301 0 0 1 38.579 49.44 A 125.911 125.911 0 0 1 117.478 6.319 A 183.454 183.454 0 0 1 146.245 4.152 Q 205.572 4.152 240.484 33.449 A 113.565 113.565 0 0 1 274.578 83.771 A 165.531 165.531 0 0 1 282.476 117.921 L 221.929 117.921 A 98.427 98.427 0 0 0 213.43 89.83 Q 195.623 53.712 147.466 53.712 A 91.392 91.392 0 0 0 120.743 57.409 A 68.503 68.503 0 0 0 84.356 83.62 A 100.588 100.588 0 0 0 70.661 111.25 Q 62.463 136.129 62.017 171.388 L 62.017 198.732 A 221.66 221.66 0 0 0 64.389 232.227 Q 69.608 266.305 86.309 288.209 A 78.171 78.171 0 0 0 143.306 319.572 A 108.268 108.268 0 0 0 153.814 320.07 A 164.241 164.241 0 0 0 177.671 318.463 Q 206.651 314.195 221.197 298.585 L 221.197 229.005 L 147.954 229.005 L 147.954 182.13 L 282.72 182.13 Z M 833.99 179.689 L 774.663 179.689 A 37.513 37.513 0 0 0 770.757 162.495 A 38.275 38.275 0 0 0 761.968 151.246 A 43.269 43.269 0 0 0 742.296 141.36 A 63.414 63.414 0 0 0 728.277 139.894 Q 711.225 139.894 699.663 146.779 A 40.875 40.875 0 0 0 696.416 148.927 Q 684.521 157.643 684.102 172.04 A 36.395 36.395 0 0 0 684.087 173.097 A 25.872 25.872 0 0 0 686.125 183.536 Q 688.573 189.155 693.962 193.211 A 31.562 31.562 0 0 0 695.562 194.337 Q 706.204 201.357 737.009 208.481 A 483.811 483.811 0 0 0 741.949 209.596 Q 764.672 214.602 781.035 220.848 A 137.993 137.993 0 0 1 796.758 227.907 Q 814.81 237.541 824.422 250.693 A 58.589 58.589 0 0 1 826.299 253.419 A 58.939 58.939 0 0 1 834.697 275.106 A 80.288 80.288 0 0 1 835.943 289.552 A 67.741 67.741 0 0 1 813.338 341.544 A 88.373 88.373 0 0 1 806.402 347.291 A 105.55 105.55 0 0 1 768.615 364.85 Q 754.052 368.536 737.008 369.227 A 197.45 197.45 0 0 1 729.009 369.386 A 153.798 153.798 0 0 1 697.406 366.27 A 122.338 122.338 0 0 1 671.148 357.667 A 104.729 104.729 0 0 1 647.34 342.736 A 87.905 87.905 0 0 1 631.597 325.441 A 78.429 78.429 0 0 1 618.89 296.097 A 75.47 75.47 0 0 1 617.437 281.251 L 675.054 281.251 A 51.081 51.081 0 0 0 677.858 295.642 A 38.993 38.993 0 0 0 690.923 313.6 A 51.436 51.436 0 0 0 709.715 322.601 Q 717.05 324.512 725.686 324.87 A 97.879 97.879 0 0 0 729.741 324.953 A 98.761 98.761 0 0 0 742.981 324.125 Q 756.898 322.237 765.386 316.041 A 31.347 31.347 0 0 0 773.176 308.068 A 27.167 27.167 0 0 0 777.593 292.726 Q 777.593 277.622 765.761 269.374 A 34.64 34.64 0 0 0 764.532 268.556 Q 753.762 261.712 731.291 256.195 A 304.546 304.546 0 0 0 721.197 253.908 Q 690.923 247.56 670.659 237.794 Q 626.226 216.31 626.226 175.538 A 68.833 68.833 0 0 1 649.077 123.564 A 94.891 94.891 0 0 1 655.034 118.41 A 103.002 103.002 0 0 1 699.575 98.172 A 144.877 144.877 0 0 1 728.277 95.46 A 155.869 155.869 0 0 1 760.924 98.688 Q 786.467 104.158 804.815 118.898 A 77.866 77.866 0 0 1 826.233 144.868 Q 833.868 160.185 833.988 179.088 A 95.228 95.228 0 0 1 833.99 179.689 Z M 1049.077 364.503 L 1047.613 338.624 A 84.987 84.987 0 0 1 996.733 367.341 A 126.981 126.981 0 0 1 973.394 369.386 A 116.841 116.841 0 0 1 947.726 366.743 Q 930.907 362.955 918.593 353.739 A 67.369 67.369 0 0 1 908.33 344.24 Q 886.236 319.093 886.236 271.486 L 886.236 100.343 L 945.562 100.343 L 945.562 270.753 Q 945.562 315.434 978.513 320.42 A 58.829 58.829 0 0 0 987.31 321.046 A 92.859 92.859 0 0 0 1008.843 318.728 A 52.203 52.203 0 0 0 1045.659 290.04 L 1045.659 100.343 L 1104.986 100.343 L 1104.986 364.503 L 1049.077 364.503 Z M 1167.974 100.343 L 1227.3 100.343 L 1227.3 387.941 A 131.008 131.008 0 0 1 1225.333 411.399 Q 1221.006 435.144 1207.158 449.83 Q 1187.017 471.193 1148.199 471.193 Q 1131.841 471.193 1116.704 467.042 L 1116.704 420.167 A 78.264 78.264 0 0 0 1126.592 421.815 Q 1131.759 422.356 1137.518 422.365 A 124.798 124.798 0 0 0 1137.7 422.365 A 38.953 38.953 0 0 0 1149.965 420.594 Q 1162.438 416.461 1166.281 402.674 A 51.128 51.128 0 0 0 1167.974 390.138 L 1167.974 100.343 Z M 333.745 232.912 L 333.745 229.982 A 168.994 168.994 0 0 1 338.612 188.744 A 143.304 143.304 0 0 1 349.126 160.036 A 117.294 117.294 0 0 1 373.579 126.407 A 108.497 108.497 0 0 1 392.339 112.184 A 117.419 117.419 0 0 1 441.968 96.15 A 146.037 146.037 0 0 1 456.304 95.46 A 135.394 135.394 0 0 1 496.422 101.142 A 108.63 108.63 0 0 1 543.096 129.884 A 124.59 124.59 0 0 1 574.812 189.397 A 175.264 175.264 0 0 1 579.107 221.193 L 579.351 235.109 Q 579.351 274.171 564.336 304.933 Q 549.322 335.695 521.367 352.54 A 117.591 117.591 0 0 1 472.67 368.551 A 147.661 147.661 0 0 1 456.792 369.386 A 135.676 135.676 0 0 1 415.787 363.476 A 108.004 108.004 0 0 1 367.315 332.155 A 126.54 126.54 0 0 1 338.093 274.334 A 186.571 186.571 0 0 1 333.745 232.912 Z M 1353.765 100.343 L 1353.765 364.503 L 1294.439 364.503 L 1294.439 100.343 L 1353.765 100.343 Z M 393.072 235.109 Q 393.072 275.88 409.917 298.952 A 53.625 53.625 0 0 0 448.607 321.567 A 71.529 71.529 0 0 0 456.792 322.023 A 61.537 61.537 0 0 0 478.222 318.447 Q 493.354 312.868 503.545 298.585 A 77.56 77.56 0 0 0 514.059 276.959 Q 520.269 257.505 520.269 229.982 A 150.912 150.912 0 0 0 518.258 204.551 Q 515.898 190.767 510.77 179.655 A 75.798 75.798 0 0 0 503.057 166.505 A 56.981 56.981 0 0 0 483.671 149.394 Q 472.59 143.562 458.682 143.106 A 72.624 72.624 0 0 0 456.304 143.068 A 58.71 58.71 0 0 0 433.173 147.484 Q 420.402 152.895 411.071 164.938 A 69.531 69.531 0 0 0 410.161 166.139 A 74.484 74.484 0 0 0 399.499 187.397 Q 396.135 197.637 394.531 210.229 A 197.536 197.536 0 0 0 393.072 235.109 Z M 1292.541 20.347 A 35.405 35.405 0 0 0 1290.777 31.74 A 40.033 40.033 0 0 0 1290.83 33.81 A 30.316 30.316 0 0 0 1299.444 54.079 A 26.401 26.401 0 0 0 1303.627 57.574 Q 1311.663 62.99 1324.224 62.99 A 56.215 56.215 0 0 0 1325.909 62.965 Q 1331.342 62.802 1335.901 61.575 A 28.596 28.596 0 0 0 1349.126 54.079 A 29.586 29.586 0 0 0 1356.016 43.247 A 33.689 33.689 0 0 0 1357.915 31.74 A 40.602 40.602 0 0 0 1357.838 29.217 A 30.704 30.704 0 0 0 1349.126 9.035 A 27.039 27.039 0 0 0 1345.798 6.129 Q 1340.882 2.501 1334.223 1.021 A 46.085 46.085 0 0 0 1324.224 0.001 Q 1317.914 0.001 1312.746 1.387 A 28.072 28.072 0 0 0 1299.444 9.035 A 30.072 30.072 0 0 0 1292.541 20.347 Z M 1164.611 20.347 A 35.405 35.405 0 0 0 1162.847 31.74 A 40.033 40.033 0 0 0 1162.9 33.81 A 30.316 30.316 0 0 0 1171.514 54.079 A 26.401 26.401 0 0 0 1175.697 57.574 Q 1183.733 62.99 1196.294 62.99 A 56.215 56.215 0 0 0 1197.979 62.965 Q 1203.413 62.802 1207.972 61.575 A 28.596 28.596 0 0 0 1221.197 54.079 A 29.586 29.586 0 0 0 1228.086 43.247 A 33.689 33.689 0 0 0 1229.986 31.74 A 40.602 40.602 0 0 0 1229.908 29.217 A 30.704 30.704 0 0 0 1221.197 9.035 A 27.039 27.039 0 0 0 1217.868 6.129 Q 1212.952 2.501 1206.294 1.021 A 46.085 46.085 0 0 0 1196.294 0.001 Q 1189.984 0.001 1184.816 1.387 A 28.072 28.072 0 0 0 1171.514 9.035 A 30.072 30.072 0 0 0 1164.611 20.347 Z" vector-effect="non-scaling-stroke"/></g></svg>